<?xml version="1.0" encoding="UTF-8"?> <!-- Generator: Adobe Illustrator 24.0.1, SVG Export Plug-In . SVG Version: 6.00 Build 0) -->
<svg xmlns="http://www.w3.org/2000/svg" id="Capa_1" x="0px" y="0px"
     viewBox="0 0 753 650.4" style="enable-background:new 0 0 753 650.4;" xml:space="preserve"> <style type="text/css"> .st0{opacity:0.14;fill:#8DCFE6;enable-background:new ;} .st1{fill:#9B9B9B;} .st2{fill:#133248;} .st3{fill:#011B2E;} .st4{fill:#FFFFFF;} .st5{fill:#DDDDDD;} .st6{fill:#B2B2B2;} .st7{fill:#E2E2E2;} .st8{opacity:0.2;enable-background:new ;} .st9{fill:#353535;} .st10{fill:#686868;} .st11{fill:#5B5B5B;} .st12{fill:#F9C117;} .st13{fill:#009E82;} .st14{fill:#FF5656;} .st15{opacity:5.000000e-02;fill:#FFFFFF;enable-background:new ;} .st16{fill:#F59F08;} .st17{opacity:0.5;fill:#666666;enable-background:new ;} .st18{fill:#7C4550;} .st19{fill:#1070B1;} .st20{fill:#FDAD80;} .st21{fill:#F68768;} .st22{fill:#09578C;} .st23{fill:#61DAFB;} .st24{fill:#44C1BD;} .st25{fill:#31314C;} .st26{opacity:0.5;fill:#494967;enable-background:new ;} .st27{fill:#7653A5;} .st28{fill:#583180;} </style>
    <path class="st0"
          d="M566.1,52.5c-42.6-19.8-99.2-1.3-121.7,39.8c-2.4,4.3-4.6,9.2-8.8,12c-5.6,3.8-13.1,2.8-19.6,1.5 c-62.9-12-124.8-34.3-188.8-33.7c-30.6,0.3-62.5,6.4-86.3,25.6c-7.8,6.1-14.8,14.1-16.7,23.8c-1.5,7.4,0,15,2.1,22.3 c8.2,28.3,25.5,54.3,27.3,83.7c0.3,4,0.1,8.2-1.5,11.8c-2.1,4.5-6.4,7.4-10.9,9.6c-15.2,7.7-32.9,8.1-49.6,10.7 c-16.9,2.5-34.7,8.1-44.4,22.1c-12,17.3-6.5,42.5,7.8,57.7s35.7,22.3,56.4,25.2s41.9,2.4,62.7,5.6c4.3,0.7,8.9,1.5,12.1,4.5 c7.9,7,3.9,20.5-3.2,28.3c-12.8,14.1-31.9,19.9-49.4,26.9c-23.7,9.3-46.8,22.4-61.4,43.3c-2.4,3.5-4.6,7.4-4.2,11.6 c0.6,6.1,6.7,10.2,12.4,12.5c45.5,18.2,96.2-17.3,144.8-10.9c-4.6,35.4-57.8,43.7-69.9,77.3c-1.1,3.2-1.8,7,0.1,9.6 c1.7,2.4,4.9,3.2,7.8,3.9c29.1,6.3,58.9,9.2,88.6,8.8c16.9-0.3,36.6-0.1,46.5,13.4c6,8.4,7.7,21,17.3,24.6c4.3,1.7,9.1,1,13.5-0.3 c23.5-6.1,42.5-23.3,64.5-33.7c6.3-3.1,13.5-5.4,20.1-3.1c4.7,1.8,8.2,5.8,11.6,9.6c16.4,18.8,40.9,36.1,64.5,28.1 c18.9-6.4,30.9-27.4,50.6-30.9c15.3-2.8,29.9,6.1,45,10.4c16.4,4.9,34.8,4,50-4c15.2-8.1,26.5-23.7,27.4-40.8 c1.1-18.4-9.2-36.5-6-54.6c5.3-28.7,42.8-48.7,35.9-77.2c-3.2-13.6-16.3-22.7-29.4-28.1c-13-5.4-27.2-8.6-38.6-16.9 c-11.4-8.2-19.2-24.1-12.8-36.6c2.4-4.6,6.4-8.2,10.6-11.1c16.9-11.7,38.3-15,55.3-26.5c17-11.4,27.2-38.4,11.7-51.7 c-3.8-3.2-8.4-5.2-12-8.5c-13.1-12.4-3.6-34.3,7-48.9c5.4-7.5,11.1-15.5,11.3-24.6c0.1-15.7-15.5-26.3-29.7-33.1 c-28.7-13.8-79.8,7.5-94.1-20.8c-7.9-15.6,37-30.9,39-48.3c1.9-17.1-29.5-18.7-46.7-20.3"/>
    <ellipse class="st1" cx="390" cy="536" rx="245.1" ry="15.7"/>
    <path class="st2"
          d="M640.9,156.4v256.1H135V156.4c0-13.5,11-24.5,24.5-24.5h456.9C629.9,132,640.9,142.9,640.9,156.4z"/>
    <path class="st3" d="M135,284.9h505.9v127.7H135V284.9z"/>
    <path class="st4"
          d="M640.9,412.6c0,6.7-1.7,13.1-4.6,18.5c-1.9,3.6-4.3,6.8-7.1,9.7c-7.2,7.2-17.3,11.7-28.3,11.7H175.1 c-15.5,0-28.8-8.6-35.5-21.4c-2.9-5.6-4.6-11.8-4.6-18.5L640.9,412.6L640.9,412.6z"/>
    <path class="st5"
          d="M636.3,431.1c-1.9,3.6-4.3,6.8-7.1,9.7c-7.2,7.2-17.3,11.7-28.3,11.7H175.1c-15.5,0-28.7-8.6-35.5-21.4 L636.3,431.1L636.3,431.1z"/>
    <path class="st2"
          d="M425.7,430.6v1.1c0,2.5-2.1,4.6-4.6,4.6h-66.4c-2.5,0-4.6-2.1-4.6-4.6v-1.1c0-2.5,2.1-4.6,4.6-4.6h66.4 C423.7,425.9,425.7,427.9,425.7,430.6z"/>
    <path class="st5" d="M313.2,452.6h149.6V515H313.2V452.6z"/>
    <path class="st6" d="M313.2,452.6h149.6v22.8H313.2V452.6z"/>
    <path class="st7"
          d="M516.5,536.4H259.3V528c0-7.2,5.8-13.1,13.1-13.1h231.2c7.2,0,13.1,5.8,13.1,13.1L516.5,536.4L516.5,536.4z"/>
    <circle class="st4" cx="390" cy="143.2" r="4.7"/>
    <path class="st8" d="M425.7,431.1v0.6c0,2.5-2.1,4.6-4.6,4.6h-66.4c-2.5,0-4.6-2.1-4.6-4.6v-0.6H425.7z"/>
    <path class="st9"
          d="M623.6,159.9v222c0,3.1-2.5,5.6-5.6,5.6H157.7c-1.1,0-2.2-0.4-3.1-1c-1.4-1-2.4-2.6-2.4-4.6v-222 c0-3.1,2.5-5.6,5.6-5.6h460.5c1.9,0,3.6,1,4.6,2.5C623.4,157.6,623.6,158.7,623.6,159.9z"/>
    <path class="st10" d="M174.5,199.1h36.8v175.3h-36.8V199.1z"/>
    <path class="st11" d="M174.5,199.1h36.8v11h-36.8V199.1z"/>
    <path class="st10" d="M569.3,283.1h36.8v93.2h-36.8V283.1z"/>
    <path class="st11" d="M569.3,283.1h36.8v11.7h-36.8V283.1z"/>
    <path class="st10" d="M569.3,199.1h36.8v47.8h-36.8V199.1z"/>
    <path class="st11" d="M569.3,199.1h36.8v11.7h-36.8V199.1z"/>
    <path class="st10"
          d="M623.8,159.9v17.4H152.1v-17.4c0-3.1,2.5-5.6,5.6-5.6h460.5c1.9,0,3.6,1,4.6,2.5 C623.4,157.6,623.8,158.7,623.8,159.9z"/>
    <circle class="st12" cx="579.5" cy="164.7" r="3.9"/>
    <circle class="st13" cx="592.2" cy="164.7" r="3.9"/>
    <circle class="st14" cx="604.3" cy="164.7" r="3.9"/>
    <path class="st15"
          d="M516.1,154l-0.3,0.3l-233,233H202l233-233L516.1,154z M623.6,195v80.8L512.1,387.3h-80.8L623.6,195z M310.4,154L152.1,312.2v-80.8l77.2-77.2L310.4,154z"/>
    <g> <ellipse class="st1" cx="113.2" cy="582.4" rx="56" ry="6.8"/>
        <path class="st3" d="M195,337.1l12.5,12.5l-68.2,68.2l-12.5-12.5L195,337.1z"/>
        <path class="st12" d="M182.6,349.3l12.3-12.3l12.5,12.5l-12.3,12.3L182.6,349.3z"/>
        <path class="st12" d="M126.6,405.4l4.9-4.9L144,413l-4.9,4.9L126.6,405.4z"/>
        <path class="st16" d="M126.6,405.4l2.4-2.4l12.5,12.5l-2.4,2.4L126.6,405.4z"/>
        <path class="st16"
              d="M207.5,349.7l-4.5,4.5c-2.4-1.7-4.7-3.5-6.8-5.7c-2.1-2.1-4-4.5-5.7-6.8l4.5-4.5L207.5,349.7z"/>
        <path class="st3"
              d="M268,276.7c-18.9-18.9-49.6-18.9-68.5,0s-18.9,49.6,0,68.5s49.6,18.9,68.5,0 C286.9,326.3,286.9,295.6,268,276.7z M269.5,314.7c-0.3,2.6-0.8,5.3-1.7,7.9c-0.7,1.9-1.5,3.8-2.5,5.6c-0.1,0.3-0.4,0.7-0.6,1 c-1.3,2.2-2.8,4.3-4.6,6.3c-0.3,0.3-0.6,0.7-1,1c-0.8,0.8-1.7,1.7-2.6,2.4c-0.7,0.6-1.4,1.1-2.1,1.5c-0.1,0.1-0.3,0.3-0.4,0.3 c-2.2,1.5-4.6,2.8-7,3.6c-1.3,0.6-2.5,1-3.9,1.3c-1.9,0.6-3.8,0.8-5.7,1.1c-9.3,1-18.8-1.7-26.5-7.9c-1-0.7-1.8-1.5-2.6-2.4 c-0.3-0.3-0.6-0.7-1-1c-2.1-2.2-3.8-4.7-5.2-7.2c-1-1.8-1.8-3.6-2.5-5.6c-0.7-2.1-1.3-4.3-1.5-6.5c-0.1-0.7-0.1-1.5-0.3-2.2 c0-0.6-0.1-1-0.1-1.5v-0.1c0-1.9,0-4,0.3-6c0.1-1.5,0.6-2.9,0.8-4.5c0-0.1,0.1-0.3,0.1-0.4c0.1-0.7,0.4-1.4,0.7-2.1 c0.7-2.1,1.7-4,2.6-6c1.5-2.8,3.5-5.3,5.8-7.7c0.1,0,0.1-0.1,0.3-0.1c0.4-0.4,0.8-0.8,1.3-1.1c3.5-3.2,7.5-5.4,11.7-7 c12.1-4.3,26.2-2.1,36.2,7c0.6,0.4,1,1,1.5,1.4c2.4,2.4,4.3,4.9,5.8,7.7c0.3,0.4,0.4,0.8,0.7,1.3c1.3,2.4,2.2,4.7,2.8,7.4 c0.4,1.5,0.7,2.9,0.8,4.5c0.3,2.1,0.4,4,0.3,6.1C269.6,313.1,269.5,313.9,269.5,314.7L269.5,314.7z"/>
        <path class="st17"
              d="M269.6,312.2c0,0.8-0.1,1.7-0.1,2.4c-0.3,2.6-0.8,5.3-1.7,7.9c-0.7,1.9-1.5,3.8-2.5,5.6 c-0.1,0.3-0.4,0.7-0.6,1c-1.3,2.2-2.8,4.3-4.6,6.3c-0.3,0.3-0.6,0.7-1,1c-0.8,0.8-1.7,1.7-2.6,2.4c-0.7,0.6-1.4,1.1-2.1,1.5 c-0.1,0.1-0.3,0.3-0.4,0.3c-2.2,1.5-4.6,2.8-7,3.6c-1.3,0.6-2.5,1-3.8,1.3c-1.9,0.6-3.8,0.8-5.7,1.1c-9.3,1-18.8-1.7-26.5-7.9 c-1-0.7-1.8-1.5-2.6-2.4c-0.3-0.3-0.6-0.7-1-1c-2.1-2.2-3.8-4.7-5.2-7.2c-1-1.8-1.8-3.6-2.5-5.6c-0.7-2.1-1.3-4.3-1.5-6.5 c-0.1-0.7-0.1-1.5-0.3-2.2c0-0.6-0.1-1-0.1-1.5c0-1.9,0-4,0.3-6c0.1-1.5,0.6-2.9,0.8-4.5c0-0.1,0.1-0.3,0.1-0.4 c0.1-0.7,0.4-1.4,0.7-2.1c0.7-2.1,1.5-4,2.6-6c1.5-2.8,3.5-5.3,5.8-7.7c0.1,0,0.1-0.1,0.3-0.3c0.4-0.4,0.8-0.8,1.3-1.1 c3.5-3.2,7.5-5.4,11.7-7c12.1-4.3,26.2-2.1,36.2,7c0.6,0.4,1,1,1.5,1.4c2.4,2.4,4.3,4.9,5.8,7.7c0.3,0.4,0.4,0.8,0.7,1.3 c1.3,2.4,2.2,4.7,2.8,7.4c0.4,1.5,0.7,2.9,0.8,4.5C269.6,308.2,269.8,310.3,269.6,312.2L269.6,312.2z"/>
        <path class="st3"
              d="M125.4,575.4h8.9l5.7-68.9l-6.4-63.2l-24.2-2.2l14.5,72.1C119.8,529.7,123.3,551.1,125.4,575.4z"/>
        <path class="st18"
              d="M125.1,574.9c0,0-0.6,0.7-0.6,2.4s0.1,7,0.1,7h26.2c0,0,0.1-4-3.2-6.3c-3.3-2.2-8.5,0-13.4-3.5 C134.4,574.4,133,575.6,125.1,574.9z"/>
        <path class="st2"
              d="M76.2,574.9c1.7-18.7,9.9-56.3,15-64.3v-70.5l23.7,5.6l-7.1,65l-22.7,63.8C82.6,576,79.5,575.7,76.2,574.9 L76.2,574.9z"/>
        <path class="st18"
              d="M76.2,574.9c0,0-0.6,0.8-0.6,2.4v6.8h26.2c0,0,0.1-4-3.2-6.3c-3.3-2.2-8.5,0-13.4-3.5 C85.2,574.4,84.3,575.6,76.2,574.9z"/>
        <g> <path class="st19"
                  d="M135.1,443.5c-1.1,1.9-5,3.3-8.4,4.2c-0.3,0-0.4,0.1-0.7,0.1c-0.6,0.1-1.1,0.3-1.7,0.3 c-5.6,1-11,1.4-16.6,1.4c-1,0-2.1-0.1-3.2-0.3c-0.3,0-0.4,0-0.7-0.1c-5.8-0.8-12.3-3.3-15.5-6.5l4.7-21.2l-9.3-52.2l12-4.2 l0.7-0.3l2.6-1l2.1-0.7l12.8,1.7l2.1,0.3l0.7,0.1l9.1,1.3L135.1,443.5L135.1,443.5z"/> </g>
        <g> <path class="st2"
                  d="M124.1,327.8c0,0,3.3,1.9,2.5,7.7c-0.8,5.7-2.9,6.5-2.9,6.5S119.5,329.6,124.1,327.8z"/>
            <path class="st20"
                  d="M113.5,355.8l-0.1,7.2l-0.1,3.3c-4,3.2-11-0.8-11-0.8l-1-11.3c1.8-1.4,6.8,0.1,9.7,0.8 C112.5,355.5,113.5,355.8,113.5,355.8z"/>
            <path class="st21"
                  d="M113.5,355.8l-0.1,7.2c-4.9-1-9.2-7.5-9.2-7.5l7-0.3C112.5,355.5,113.5,355.8,113.5,355.8z"/>
            <path class="st20"
                  d="M126.1,336.9v0.7c0.1,2.2,0,4.7-0.1,7.2c0,0.6,0,1-0.1,1.5c0,0.4,0,0.8-0.1,1.4c-0.1,1-0.1,1.8-0.3,2.8 c0,0.6-0.1,1.3-0.1,1.8c0,0.4-0.1,0.8-0.3,1.3c-0.3,1.3-0.8,2.4-1.7,3.2c-1.8,2.2-4.7,3.6-7.8,3.2c-2.5-0.3-5.3-0.8-7.9-1.4 c-0.1,0-0.3,0-0.4-0.1c-2.1-0.4-4-1-5.7-1.5c-0.3-0.3-0.4-0.6-0.7-0.8c-1.8-2.5-3.1-5.4-3.8-8.5c-0.3-1.3-0.6-2.4-0.7-3.6v-0.3 c-0.4-6.3-0.4-12.4-0.4-12.4c6.3-8.9,25.6-6.8,28.8-0.8C125.5,331.7,125.9,334.1,126.1,336.9L126.1,336.9z"/>
            <path class="st2"
                  d="M101,356.1c-1.8-2.5-3.1-5.4-3.8-8.5c1,0,2.1,0.1,3.8,0.7C100.8,348.3,101.5,352.9,101,356.1z M96.3,341 c0,0,2.9-2.2,5.7,1.3l1.9-0.1c0,0-0.4-4,0.4-6.4c0.8-2.2,4.6-2.5,5-5.2c0,0,10.2,4.5,15.6,0.1c6.1-4.7-14.8-12.7-24-7.4 C93.6,327.7,94.3,334.1,96.3,341L96.3,341z"/>
            <path class="st20" d="M102,342.2c0,0-3.3-3.5-5.7-1.3c-2.6,2.5,0,10.4,5.7,9.9V342.2L102,342.2z"/>
            <path class="st2"
                  d="M112.8,321.8c0,0,5.8,0.6,10.7-1.9c5.3-2.6,8.9,7.7,2.5,10C119.5,332.4,112.8,321.8,112.8,321.8z M123.5,347.6c-2.6,0.7-5.2,1-7.8,0.1c-1-0.3-2.1-0.6-3.3-0.4c-2.2,0.1-4.2,1.3-5.4,2.1c-2.2-3.1-3.2-7.1-3.2-7.1l-1.9,0.1 c0,0,0.7,7,2.9,12c0.7,1.7,1.7,3.1,2.9,4.3c1.5,1.5,3.3,2.8,5.4,3.5c1.4,0.4,2.6,0.7,3.8,0.6c3.1-0.4,9.9-4.6,8.6-12.5l-0.6-0.4 c-0.1,4.7-2.4,7.2-4.9,7.7c-3.6,0.6-6.7-1.3-9.3-3.9c-1.5-1.5-0.4-3.9,1.8-3.9c1.7,0,3.6,0.7,5,1.1c1.7,0.4,2.5-0.1,3.8-0.7 c2.5-0.8,3.5-0.1,4,0.4c0.3-0.3,0.6-0.8,0.6-1.4c0-0.4,0-0.8-0.1-1.5C125.6,347,124.8,347.3,123.5,347.6z"/> </g>
        <path class="st22"
              d="M90.1,370.3c6.3,5.4,16.6,16.9,20.1,21.7c0,0,9.5,0.3,16,1.1c6,0.8,25.1-0.7,25.1-0.7l1.1,7 c0,0-32.7,6.3-44.8,1.8c-5.8-2.2-11.4-6.3-15.6-9.9c-4.5-3.9-8.2-8.5-11.1-13.6c-0.3-0.6-0.6-0.8-0.6-1 C78.3,370.8,85.4,366.1,90.1,370.3L90.1,370.3z"/>
        <path class="st20"
              d="M151.1,392.6c0,0,1.3-0.6,2.1-1.1c2.1-1.5,6.8-3.5,7-2.4c0.1,0.8-1.3,1.1-1.7,1.9c-0.6,1,3.1,0.4,5,0.4 c3.3,0.1,2.4,5-0.6,7.2c-2.9,2.2-7.9,3.2-10.7,0.8L151.1,392.6z"/>
        <path class="st22"
              d="M146.5,385.9c-2.6-0.6-18.8-5.7-18.8-5.7s-1.4-8.1-1.7-13.9c0,0,24.5,11.4,27.3,12.4L146.5,385.9z M176.3,380.7l-0.8,0.8l-9.9,9.9c0,0,7-1,10.7-4V380.7L176.3,380.7z"/>
        <path class="st20"
              d="M175.6,377.9l0.8-1c1.8-2.2,5.4-0.7,5.2,2.1v0.1c-0.3,2.4-1.4,6.5-5.3,8.2c-1,0.4-2.1,0.6-2.9,0.4 c-2.4-0.3-3.5-3.1-1.9-4.7L175.6,377.9L175.6,377.9z"/> </g>
    <g> <path class="st23"
              d="M441.5,252.4L441.5,252.4c-2.2-0.7-4.3-1.4-6.5-2.1c0.4-1.5,0.7-3,1-4.5c5-24,1.7-43.4-9.3-49.8 c-10.6-6.1-27.9,0.3-45.5,15.5c-1.7,1.5-3.4,3.1-5.1,4.6c-1.1-1.1-2.2-2.1-3.4-3.1c-18.4-16.3-36.8-23.2-47.8-16.8 c-10.6,6.1-13.7,24.3-9.3,47.1c0.4,2.3,0.9,4.5,1.5,6.7c-2.6,0.7-5.1,1.5-7.5,2.4c-21.5,7.5-35.3,19.3-35.3,31.5 c0,12.6,14.8,25.2,37.2,32.9c1.8,0.6,3.6,1.2,5.5,1.7c-0.6,2.4-1.1,4.8-1.6,7.3c-4.3,22.4-0.9,40.2,9.6,46.3 c10.9,6.3,29.2-0.2,47.1-15.8c1.4-1.2,2.8-2.5,4.2-3.9c1.8,1.7,3.6,3.4,5.5,5c17.3,14.9,34.3,20.9,44.9,14.8 c10.9-6.3,14.4-25.4,9.8-48.6c-0.4-1.8-0.8-3.6-1.2-5.4c1.3-0.4,2.5-0.8,3.8-1.2c23.3-7.7,38.5-20.2,38.5-33 C477.6,271.8,463.4,259.9,441.5,252.4z M386.9,218.1c15-13.1,29-18.2,35.4-14.5l0,0c6.8,3.9,9.5,19.8,5.2,40.5 c-0.3,1.4-0.6,2.7-0.9,4c-9-2-18-3.5-27.2-4.3c-5.2-7.5-11-14.7-17.2-21.4C383.7,220.9,385.3,219.5,386.9,218.1z M334.4,294.4 c1.8,3.6,3.8,7.1,5.8,10.5c2,3.5,4.2,7,6.4,10.4c-6.3-0.7-12.5-1.7-18.7-3C329.6,306.6,331.8,300.5,334.4,294.4z M334.4,274 c-2.5-6-4.7-11.9-6.5-17.6c5.8-1.3,12-2.4,18.4-3.2c-2.2,3.4-4.2,6.8-6.2,10.2C338.1,266.9,336.2,270.5,334.4,274z M339,284.2 c2.7-5.6,5.6-11,8.6-16.4v0c3.1-5.4,6.4-10.6,9.9-15.7c6-0.5,12.2-0.7,18.5-0.7c6.3,0,12.5,0.2,18.5,0.7c3.4,5.1,6.7,10.3,9.8,15.6 c3.1,5.3,6,10.8,8.8,16.3c-2.7,5.6-5.6,11.1-8.7,16.5h0c-3.1,5.3-6.3,10.6-9.8,15.7c-6,0.4-12.3,0.7-18.6,0.7 c-6.3,0-12.5-0.2-18.4-0.6c-3.5-5.1-6.8-10.4-9.9-15.8C344.6,295.2,341.7,289.8,339,284.2z M411.9,304.9c2-3.5,4-7.1,5.9-10.8l0,0 c2.6,5.8,4.9,11.8,6.8,17.9c-6.3,1.4-12.6,2.5-19,3.2C407.8,311.8,409.9,308.4,411.9,304.9L411.9,304.9z M417.7,274 c-1.9-3.6-3.8-7.1-5.8-10.6l0,0c-2-3.4-4-6.8-6.2-10.2c6.5,0.8,12.7,1.9,18.5,3.2C422.3,262.4,420.2,268.3,417.7,274z M376.1,228.6 c4.2,4.6,8.2,9.4,12,14.4c-8-0.4-16-0.4-24,0C368,237.8,372,233,376.1,228.6z M329.3,203.8c6.8-3.9,21.8,1.7,37.7,15.7 c1,0.9,2,1.8,3,2.8c-6.2,6.8-12,13.9-17.3,21.4c-9.1,0.8-18.2,2.2-27.1,4.2c-0.5-2.1-1-4.2-1.4-6.3v0 C320.4,222.3,322.9,207.5,329.3,203.8z M319.4,310.3c-1.7-0.5-3.4-1-5-1.6c-8.6-2.7-16.6-7-23.7-12.6c-4.1-2.8-6.8-7.2-7.6-12.1 c0-7.4,11-16.8,29.4-23.3c2.3-0.8,4.6-1.5,7-2.2c2.7,8.8,6,17.3,9.9,25.7C325.5,292.7,322.1,301.4,319.4,310.3z M366.4,349.8 c-6.6,6.1-14.4,10.9-22.8,14.2h0c-4.5,2.1-9.6,2.3-14.3,0.5c-6.4-3.7-9.1-18-5.4-37.1c0.4-2.3,0.9-4.5,1.5-6.7 c9,1.9,18.2,3.3,27.4,4c5.3,7.6,11.2,14.8,17.4,21.6C369,347.5,367.7,348.7,366.4,349.8z M376.3,340c-4.1-4.4-8.2-9.4-12.2-14.6 c3.9,0.2,7.9,0.2,11.9,0.2c4.1,0,8.2-0.1,12.3-0.3C384.5,330.4,380.6,335.3,376.3,340L376.3,340z M429.1,352.1 c-0.4,4.9-2.8,9.5-6.7,12.6c-6.4,3.7-20.1-1.1-34.9-13.8c-1.7-1.5-3.4-3-5.1-4.7c6.2-6.8,11.9-14,17-21.6 c9.3-0.8,18.5-2.2,27.5-4.2c0.4,1.7,0.8,3.3,1.1,4.9l0,0C430.1,334.1,430.4,343.2,429.1,352.1L429.1,352.1z M436.4,308.7 L436.4,308.7c-1.1,0.4-2.3,0.7-3.4,1.1c-2.8-8.8-6.3-17.4-10.3-25.8c3.9-8.2,7.2-16.7,9.9-25.4c2.1,0.6,4.1,1.2,6,1.9 c18.8,6.5,30.3,16,30.3,23.4C469,291.9,456.6,302.1,436.4,308.7L436.4,308.7z"/>
        <path class="st23"
              d="M376,265.9c10,0,18.2,8.1,18.2,18.2c0,10-8.1,18.2-18.2,18.2s-18.2-8.1-18.2-18.2c0,0,0,0,0,0 C357.8,274,366,265.9,376,265.9C376,265.9,376,265.9,376,265.9"/> </g>
    <g> <path class="st24"
              d="M330.9,117.5l2.1-61.7c0,0-5.4-1.4-12.3-2.2c-0.4,0-0.8-0.1-1.4-0.1c-4.3-0.4-8.9-0.4-13.2,0.3l-0.7,0.1 l-13.5,2.4l1.4,61.3C293.3,117.5,330.9,117.5,330.9,117.5z"/>
        <path class="st20" d="M317.7,44.4v9.2c-0.1,0.1-0.3,0.1-0.6,0.3c-3.2,1.3-6.5,1.3-9.7-0.3v-9.2H317.7z"/>
        <path class="st21"
              d="M317.7,46.6v7c-0.1,0.1-0.3,0.1-0.6,0.3c-3.8-0.4-7.4-2.4-9.7-3.9v-3.3C307.4,46.6,317.7,46.6,317.7,46.6z M301.1,29.4c0,0-1.1-2.6-3.3-3.2c-2.2-0.6-2.2,5.2-0.8,9.2c1.4,4,4.9,2.5,4.9,2.5L301.1,29.4z M323.9,29.4c0,0,1.1-2.6,3.3-3.2 c2.2-0.6,2.2,5.2,0.8,9.2c-1.4,4-4.9,2.5-4.9,2.5L323.9,29.4z"/>
        <path class="st20"
              d="M312.5,48.6c-6.8,0-12.4-7.4-12.4-13.8V20.2h24.8v14.6C324.9,41.2,319.3,48.6,312.5,48.6L312.5,48.6z"/>
        <path class="st25"
              d="M300.1,30.8c0,0-4.2-6.4-1.3-10.6c0,0-1.8-3.6,0-7.1s9.5-7.5,20.1-5.4s8.6,9.9,7.2,12.1c0,0,2.6,4.9-1.4,11 c0,0-2.4-3.2-1.7-9.9c0,0-11.8,3.3-21.4-0.7C301.8,20.2,303.2,28,300.1,30.8z"/>
        <path class="st24"
              d="M292.1,56.3c0,0-9.7,13.8-13.4,25.5c0,0,5,6,8.5,7.2l6.1-16.3C293.3,72.5,296.4,63.1,292.1,56.3z"/>
        <path class="st24"
              d="M287.2,89c0,0,4.6,7.7,13.2,21.2l-4.9,3.5l-15.9-18c-2.2-1.9-3.5-5.2-2.8-8.1l1.8-6 C278.7,81.6,285.1,84.1,287.2,89L287.2,89z M333,55.8c0,0,9.7,13.8,13.4,25.5c0,0-5,6-8.5,7.2l-6.1-16 C331.7,72.5,328.8,62.7,333,55.8L333,55.8z"/>
        <path class="st24"
              d="M338,88.6c0,0-4.6,7.7-13.2,21.2l4.9,3.5l15.9-17.8c2.2-1.9,3.5-5.2,2.8-8.1l-1.8-6 C346.5,81.3,340,83.7,338,88.6L338,88.6z"/>
        <path class="st3"
              d="M312.5,131.3c-0.1-1.5,0.1-3.1,0.4-4.5c1-5.3,4-16,13.2-14.8c12,1.7,8.2,24.5,8.2,24.5l-7.1,56.1h-8.6 C318.7,192.7,315.4,160,312.5,131.3z"/>
        <path class="st3" d="M276.5,112c0,0,11.3,16.7,23.7,23.3c13.4,7,19.4-6,19.4-6S289.8,108.2,276.5,112z"/>
        <path class="st25"
              d="M330.8,106.1c0,0,0.8,10.6-2.4,13.6c-3.2,3.1-22.7,3.2-29.2,1.1s-5.4-15.5-5.4-15.5L330.8,106.1L330.8,106.1z "/>
        <g> <path class="st4"
                  d="M335.1,108.6h-46L285,83.8c-0.4-2.1,1.3-4.2,3.5-4.2H336c2.2,0,3.9,1.9,3.5,4.2L335.1,108.6L335.1,108.6z M330.8,113.9h-37.2c-2.4,0-4.3-1.9-4.3-4.3v-1h46v1C335.1,112,333.1,113.9,330.8,113.9z"/>
            <circle class="st26" cx="312.5" cy="95.1" r="4"/> </g>
        <g> <path class="st18"
                  d="M357.5,137c-2.4,2.4-5.4,2.4-8.4,0.6c-1.3-0.7-3.1-1.8-4.9-2.6c-2.4-1.3-4.5-2.4-4.5-2.4l2.8-6.3h4 c1.9,0,4.5-0.1,6.8-0.4c5.2-0.6,7.7-1.9,8.4,0.1C362.2,128.1,359.9,134.7,357.5,137L357.5,137z"/>
            <path class="st2"
                  d="M292.5,99.1c0,0-9.1-5.4-16.7-0.1c-7.7,5.3,0.4,15.3,8.8,18.7c8.4,3.3,57.5,17,57.5,17c0.8-1.8,1.5-5,2.4-8.5 c0,0-14.6-8.4-22.8-13.6C302.9,100.5,292.5,99.1,292.5,99.1L292.5,99.1z"/> </g>
        <path class="st18"
              d="M327.3,192.7c0,0,5,7.8,8.2,14.6c3.1,6.7,0.1,8.8-4.3,8.5c-7.4-0.6-13.2-18-13.2-18l0.7-5.2 C318.7,192.7,320.3,192.9,327.3,192.7L327.3,192.7z"/> </g>
    <g> <ellipse class="st1" cx="500.9" cy="601.7" rx="91.6" ry="6.8"/>
        <path class="st3"
              d="M494,479.4h-8.8l-5.6-67.8l6.3-62.3l23.8-2.2L495.4,418C499.4,434.4,495.9,455.5,494,479.4L494,479.4z"/>
        <path class="st18"
              d="M494.1,478.9c0,0,0.6,0.7,0.6,2.2s-0.1,6.8-0.1,6.8h-25.8c0,0-0.1-4,3.2-6.1c3.2-2.1,8.4,0,13.1-3.5 C485,478.4,486.3,479.5,494.1,478.9L494.1,478.9z"/>
        <path class="st2"
              d="M536.9,478.9c-1.7-18.4-9.7-55.4-14.9-63.4v-69.4l-23.3,5.6l7,64.1l22.3,62.7 C530.6,479.8,533.7,479.5,536.9,478.9L536.9,478.9z"/>
        <path class="st18"
              d="M536.9,478.9c0,0,0.6,0.8,0.6,2.4v6.8h-25.8c0,0-0.1-4,3.2-6.1c3.2-2.1,8.4,0,13.1-3.5 C527.9,478.4,528.9,479.5,536.9,478.9L536.9,478.9z"/>
        <path class="st27"
              d="M483.9,306l-0.1,48c23.3,8.4,39.7-2.6,39.7-2.6l-7.2-39.7l8.9-33.3l-6-3.1l-1.3-0.6l-2.6-1.4l-8.4-4.2 l-16.7,2.2l-2.4,0.3l-1.4,0.1l-1.8,0.3c0.8,5.4,0.3,12.1-0.4,18.8c-1.3,2.6-2.2,5.7-2.4,8.4c0,2.4,0.7,4.2,1.8,5.6 c0,0.1,0.1,0.1,0.1,0.3L483.9,306L483.9,306z"/>
        <path class="st28"
              d="M484.1,305.2v0.8c2.2,0.6,7.2,1.7,13.5,1.7c3.1,0,6.4-0.3,9.9-1c0.3,0,0.4-0.3,0.4-0.6c0-0.3-0.3-0.4-0.6-0.4 c-11.3,2.2-20.8-0.1-23.4-0.8C483.9,304.9,483.9,305.1,484.1,305.2L484.1,305.2z"/>
        <path class="st2" d="M490.6,234.6c0,0-3.1,2.5-3.6,6c-0.6,3.3,1,6,1,6L490.6,234.6z"/>
        <path class="st2"
              d="M491.6,237.8c5.6,3.3,16.4,3.2,16.4,3.2c8.4,2.8,3.5,21.6,3.5,21.6c8.1-0.8,9.7-17.3,9.7-17.3 c0.7,0.1,1.4,0.3,2.1,0.3c9.1,0.6,9.7-12.1,2.1-14.6c-4.5-1.4-6.7,1.4-7.7,3.3c-0.4,1-0.7,1.7-0.7,1.7c-2.5-3.3-15.5-9.6-21.6-8.5 C489.5,228.5,487,235.1,491.6,237.8L491.6,237.8z"/>
        <path class="st12"
              d="M517.1,235.8c0,0,3.5,3.3,4.2,9.3c0.7,0.1,1.4,0.3,2.1,0.3c-0.1-1.8-1.1-8.8-5.6-11.3 C517.2,235.1,517.1,235.8,517.1,235.8L517.1,235.8z"/>
        <path class="st20"
              d="M498.6,262.9l-0.4,6.4l-0.1,2.9c3.3,3.2,9.6,0.1,9.6,0.1l1.7-10.2c-1.5-1.4-5.8-0.1-8.5,0.3 C499.5,262.6,498.6,262.9,498.6,262.9L498.6,262.9z"/>
        <path class="st21"
              d="M498.6,262.9l-0.4,6.4c4.5-0.4,8.6-6,8.6-6l-6.1-0.8C499.5,262.6,498.6,262.9,498.6,262.9L498.6,262.9z"/>
        <path class="st20"
              d="M491.5,263.8c7.2,4.5,16.9,0.3,19.9-1.1c0.6-0.3,1-0.6,1-0.6s0.4-1.5,1-3.8c0.6-2.4,1.1-5.6,1.3-8.6 c0.1-3.6-0.3-7.1-2.4-8.8l-21.9-5.2c0,0-0.1,0.3-0.3,0.7C488.9,240.6,483.7,259.1,491.5,263.8L491.5,263.8z"/>
        <path class="st2"
              d="M511.4,262.7c0.6-0.3,1-0.6,1-0.6s0.4-1.5,1-3.8l-1.8,0.6C511.4,259,509.8,260.9,511.4,262.7L511.4,262.7z">/</path>
        <path class="st20" d="M511,251.3c0,0,3.1-3.1,5.2-0.4c2.2,2.9-1,10.3-6.4,8.9L511,251.3L511,251.3z"/>
        <path class="st2"
              d="M490.2,236.5c2.1,1.1,11.3,5.4,18.2,5c0,0-0.1,0.6-0.3,1.4v0.1c-0.1,1.1-1.3,7.5-1,11.1 c0.3,3.9-0.8,7.1-2.4,7.1c0,0,1.3,0.7,2.6-1.5c1.4-2.2,2.6-7.4,2.6-7.4c1-1,2.4-3.1,4.6-2.6c0.1-3.6-0.3-7.1-2.4-8.8l-21.9-5.2 C490.3,235.8,490.3,236.1,490.2,236.5L490.2,236.5z"/>
        <path class="st28"
              d="M518.5,277.9c-7.2,4.2-19.5,13.4-23.8,17.4c0,0-9.3-1.5-15.9-1.9c-6-0.3-24.4-5.6-24.4-5.6l-2.4,6.7 c0,0,30.9,12.5,43.6,10.4c6.3-1,12.4-3.9,17.3-6.7c5.2-2.9,9.7-6.8,13.5-11.3c0.4-0.4,0.7-0.8,0.7-0.8 C529.9,280.8,523.8,274.7,518.5,277.9L518.5,277.9z"/>
        <path class="st20"
              d="M454.3,287.8c0,0-1.1-0.8-1.8-1.5c-1.8-1.8-6.1-4.7-6.4-3.8c-0.3,0.7,1,1.3,1.3,2.2c0.3,1.1-3.2-0.3-5-0.6 c-3.3-0.6-3.3,4.5-0.8,7.2c2.5,2.6,7.1,4.6,10.4,2.9L454.3,287.8L454.3,287.8z"/>
        <path class="st28"
              d="M477,277.9c3.3-2.8,7.9-5.8,7.9-5.8c1.7,6.7,0.3,11,0.3,11s-4.2,4.5-8.1,6V278H477V277.9z"/>
        <g> <path class="st16"
                  d="M504.1,491.4l27.7,108.3c0.3,1-0.3,1.7-1.3,1.7s-1.9-0.8-2.2-1.7l-27.7-108.3H504.1L504.1,491.4z M549.4,491.4l27.7,108.3c0.3,1-0.3,1.7-1.3,1.7s-1.9-0.8-2.2-1.7l-27.7-108.3H549.4L549.4,491.4z"/>
            <path class="st16"
                  d="M502,491.4h46c0.8,0.1,1.5,0.8,1.8,1.7c0.3,1-0.3,1.7-1.3,1.7h-45.2c-1,0-1.9-0.8-2.2-1.7 C500.8,492.4,501.2,491.7,502,491.4z M554,516.5h-45.3c-1,0-1.9-0.8-2.2-1.7c-0.3-1,0.3-1.7,1.3-1.7h45.3c1,0,1.9,0.8,2.2,1.7 C555.5,515.6,555,516.5,554,516.5z M559.4,538h-45.3c-1,0-1.9-0.8-2.2-1.7c-0.3-1,0.3-1.7,1.3-1.7h45.3c1,0,1.9,0.8,2.2,1.7 C560.9,537.2,560.4,538,559.4,538z M565,559.6h-45.3c-1,0-1.9-0.8-2.2-1.8s0.3-1.8,1.3-1.8h45.3c1,0,1.9,0.8,2.2,1.8 S566,559.6,565,559.6z M570.6,581.2h-45.3c-1,0-1.9-0.8-2.2-1.7c-0.3-1,0.3-1.7,1.3-1.7h45.3c1,0,1.9,0.8,2.2,1.7 C572.1,580.5,571.5,581.2,570.6,581.2z"/>
            <g> <path class="st12"
                      d="M503.2,491.4h3.5L479,599.7c-0.3,1-1.3,1.7-2.2,1.7s-1.5-0.8-1.3-1.7L503.2,491.4z M430.2,599.7l27.7-108.3 h3.5l-27.7,108.3c-0.3,1-1.3,1.7-2.2,1.7C430.6,601.5,430,600.7,430.2,599.7z"/>
                <path class="st12"
                      d="M459.3,491.4h46c0.7,0.1,1.1,0.8,1,1.7c-0.3,1-1.3,1.7-2.2,1.7h-45.3c-1,0-1.5-0.8-1.3-1.7 C457.8,492.4,458.6,491.7,459.3,491.4z"/>
                <path class="st12"
                      d="M458.7,494.9h91.1c1.5,0,2.8-1.3,2.8-2.8v-1.3c0-1.5-1.3-2.8-2.8-2.8h-91.1c-1.5,0-2.8,1.3-2.8,2.8v1.3 C455.9,493.6,457.2,494.9,458.7,494.9z M453.3,516.5h45.3c1,0,1.9-0.8,2.2-1.7c0.3-1-0.3-1.7-1.3-1.7h-45.2c-1,0-1.9,0.8-2.2,1.7 C451.8,515.6,452.3,516.5,453.3,516.5z M447.7,538H493c1,0,1.9-0.8,2.2-1.7c0.3-1-0.3-1.7-1.3-1.7h-45.3c-1,0-1.9,0.8-2.2,1.7 C446.2,537.3,446.9,538,447.7,538z M442.3,559.6h45.3c1,0,1.9-0.8,2.2-1.8c0.3-1-0.3-1.8-1.3-1.8h-45.2c-1,0-1.9,0.8-2.2,1.8 S441.3,559.6,442.3,559.6z M436.7,581.2H482c1,0,1.9-0.8,2.2-1.7c0.3-1-0.3-1.7-1.3-1.7h-45.3c-1,0-1.9,0.8-2.2,1.7 C435.2,580.5,435.8,581.2,436.7,581.2z"/> </g> </g> </g> </svg>